<?xml version="1.0" encoding="UTF-8"?>
<svg width="16px" height="16px" viewBox="0 0 16 16" version="1.1" xmlns="http://www.w3.org/2000/svg" xmlns:xlink="http://www.w3.org/1999/xlink">
    <!-- Generator: Sketch 64 (93537) - https://sketch.com -->
    <title>error-icon</title>
    <desc>Created with Sketch.</desc>
    <g id="error-icon" stroke="none" stroke-width="1" fill="none" fill-rule="evenodd">
        <g id="Group">
            <circle id="Oval" fill="#D04040" cx="8" cy="8" r="8"></circle>
            <path d="M8.9,9.192 L8.9,3.504 L7.1,3.504 L7.1,9.192 L8.9,9.192 Z M8,12.072 C8.152,12.072 8.296,12.044 8.432,11.988 C8.568,11.932 8.686,11.854 8.786,11.754 C8.886,11.654 8.964,11.536 9.02,11.4 C9.076,11.264 9.104,11.12 9.104,10.968 C9.104,10.816 9.076,10.672 9.02,10.536 C8.964,10.4 8.886,10.282 8.786,10.182 C8.686,10.082 8.568,10.004 8.432,9.948 C8.296,9.892 8.152,9.864 8,9.864 C7.848,9.864 7.704,9.892 7.568,9.948 C7.432,10.004 7.314,10.082 7.214,10.182 C7.114,10.282 7.036,10.4 6.98,10.536 C6.924,10.672 6.896,10.816 6.896,10.968 C6.896,11.12 6.924,11.264 6.98,11.4 C7.036,11.536 7.114,11.654 7.214,11.754 C7.314,11.854 7.432,11.932 7.568,11.988 C7.704,12.044 7.848,12.072 8,12.072 Z" id="!" fill="#FFFFFF" fill-rule="nonzero"></path>
        </g>
    </g>
</svg>